<?xml version="1.0" encoding="UTF-8"?>
<svg id="Layer_1" data-name="Layer 1" xmlns="http://www.w3.org/2000/svg" viewBox="0 0 68.31 58.53">
  <defs>
    <style>
      .cls-1 {
        fill: #f9f9f9;
      }
    </style>
  </defs>
  <path class="cls-1" d="m6.07,10.16h4.53c.4,12.01,5.5,24.71,14.9,32.47V10.16h4.65v41.26C15.37,43.15,6.3,27,6.07,10.16Z"/>
  <path class="cls-1" d="m51.98,51.7c-11.33,0-20.63-9.52-20.63-20.8s9.12-21.48,20.63-21.48c4.82,0,7.71,1.13,11.67,3.63v6.01c-3.74-3.17-6.52-4.93-11.67-4.93-9.35,0-15.98,7.88-15.98,16.94s7.14,15.92,15.98,15.92c5.1,0,7.99-1.64,11.67-4.93v6.01c-3.8,2.38-7.08,3.63-11.67,3.63Z"/>
</svg>