<svg
   width="100%"
   height="100%"
   fill="#ffffff"
   viewBox="0 0 408 400"
   xmlns="http://www.w3.org/2000/svg">
 
  <path
     d="m 322.26,290.11 85.74,-84.24 -79.3,-87.08 -0.33,-0.34 c -4.22,-4.2 -8.67,-8.13 -13.32,-11.82 l 43.2,-40.07 -13.42,-14.47 -46.4,43.04 C 273.59,80.11 244.4,71.54 213.14,70.31 L 214.53,0.39 194.8,0 193.4,70.47 c -31.23,1.86 -61.14,11.11 -86.44,26.36 L 63.34,49.81 48.87,63.23 l 41.6,44.85 c -4.38,3.41 -8.57,7.03 -12.53,10.84 L 0,205.87 l 82.87,82.78 0.66,0.6 c 4.62,3.84 9.29,7.44 14.02,10.8 l -47.9,44.44 13.42,14.47 51.68,-47.94 c 26.29,15.05 53.93,22.93 82.03,23.64 l -1.25,62.66 19.73,0.39 1.27,-63.69 c 26.12,-2.44 52.43,-11.04 78.22,-25.74 l 46.53,50.16 14.47,-13.42 -43.97,-47.4 c 3.51,-2.39 7.01,-4.86 10.49,-7.49 z M 278.43,179.5 c 0,41.65 -33.88,75.54 -75.54,75.54 -41.66,0 -75.54,-33.88 -75.54,-75.54 0,-41.66 33.88,-75.54 75.54,-75.54 41.66,0 75.54,33.89 75.54,75.54 z M 27.18,205.11 91.89,132.89 c 17.86,-17.1 39.9,-29.06 63.53,-35.95 -28.54,16.48 -47.8,47.3 -47.8,82.55 0,52.53 42.74,95.27 95.28,95.27 52.54,0 95.27,-42.74 95.27,-95.27 0,-36.43 -20.56,-68.13 -50.67,-84.16 25.18,6.46 48.49,18.74 66.78,36.91 l 66.35,72.86 -70.76,69.63 C 237.78,328.85 162.04,328.72 96.51,274.35 L 27.19,205.1 Z"
     id="path1" />
  <path
     d="m 196.85,235.42 c 32.42,0 58.7,-26.28 58.7,-58.7 0,-29.81 -22.23,-54.42 -51.02,-58.18 8.84,10.27 14.2,23.63 14.2,38.25 0,32.42 -26.28,58.7 -58.7,58.7 -2.6,0 -5.16,-0.19 -7.68,-0.52 10.76,12.51 26.7,20.44 44.5,20.44 z"
     id="path2" />
</svg>
