<svg width="100%" height="100%" fill="white" xmlns="http://www.w3.org/2000/svg" viewBox="0 0 1920 601.47">
  <path d="m1078.26,522l85.74-84.24-79.3-87.08-.33-.34c-4.22-4.2-8.67-8.13-13.32-11.82l43.2-40.07-13.42-14.47-46.4,43.04c-24.84-15.02-54.03-23.59-85.29-24.82l1.39-69.92-19.73-.39-1.4,70.47c-31.23,1.86-61.14,11.11-86.44,26.36l-43.62-47.02-14.47,13.42,41.6,44.85c-4.38,3.41-8.57,7.03-12.53,10.84l-77.94,86.95,82.87,82.78.66.6c4.62,3.84,9.29,7.44,14.02,10.8l-47.9,44.44,13.42,14.47,51.68-47.94c26.29,15.05,53.93,22.93,82.03,23.64l-1.25,62.66,19.73.39,1.27-63.69c26.12-2.44,52.43-11.04,78.22-25.74l46.53,50.16,14.47-13.42-43.97-47.4c3.51-2.39,7.01-4.86,10.49-7.49Zm-43.83-110.61c0,41.65-33.88,75.54-75.54,75.54s-75.54-33.88-75.54-75.54,33.88-75.54,75.54-75.54,75.54,33.89,75.54,75.54Zm-251.25,25.61l64.71-72.22c17.86-17.1,39.9-29.06,63.53-35.95-28.54,16.48-47.8,47.3-47.8,82.55,0,52.53,42.74,95.27,95.28,95.27s95.27-42.74,95.27-95.27c0-36.43-20.56-68.13-50.67-84.16,25.18,6.46,48.49,18.74,66.78,36.91l66.35,72.86-70.76,69.63c-72.09,54.12-147.83,53.99-213.36-.38l-69.32-69.25Z"/>
  <path d="m952.85,467.31c32.42,0,58.7-26.28,58.7-58.7,0-29.81-22.23-54.42-51.02-58.18,8.84,10.27,14.2,23.63,14.2,38.25,0,32.42-26.28,58.7-58.7,58.7-2.6,0-5.16-.19-7.68-.52,10.76,12.51,26.7,20.44,44.5,20.44Z"/>
</svg>