<?xml version="1.0" encoding="UTF-8"?>
<svg width="100%" height="100%" id="Layer_1" data-name="Layer 1" xmlns="http://www.w3.org/2000/svg" xmlns:xlink="http://www.w3.org/1999/xlink" viewBox="0 0 1920 861.47">
  <defs>
    <style>
      .cls-1 {
        clip-path: url(#clippath);
      }

      .cls-2, .cls-3 {
        fill: none;
      }

      .cls-2, .cls-4 {
        stroke-width: 0px;
      }

      .cls-3 {
        stroke: #f0d8aa;
        stroke-miterlimit: 10;
        stroke-width: 2px;
      }

      .cls-4 {
        fill: #f0d8aa;
      }
    </style>
    <clipPath id="clippath">
      <rect class="cls-2" x="-1940" y="75.5" width="1920" height="706.37"/>
    </clipPath>
  </defs>
  <g class="cls-1">
    <image width="1640" height="924" transform="translate(-1998.58 34.41) scale(1.27)" xlink:href="../../PROVIDED/IMAGES/14.png"/>
  </g>
  <g>
    <g>
      <line class="cls-3" x1="460.07" y1="444.98" x2="130.49" y2="444.98"/>
      <line class="cls-3" x1="460.07" y1="468.31" x2="175.22" y2="480.53"/>
      <line class="cls-3" x1="469.49" y1="491.64" x2="271.74" y2="510.53"/>
      <line class="cls-3" x1="481.88" y1="513.44" x2="204.57" y2="553.59"/>
      <line class="cls-3" x1="502.87" y1="533.51" x2="195.73" y2="595.3"/>
      <line class="cls-3" x1="522.76" y1="553.59" x2="265.33" y2="620.85"/>
      <line class="cls-3" x1="547.07" y1="575.49" x2="375.82" y2="629.72"/>
      <line class="cls-3" x1="575.79" y1="595.3" x2="349.3" y2="681.34"/>
      <line class="cls-3" x1="608.94" y1="611.47" x2="375.82" y2="720.97"/>
      <line class="cls-3" x1="644.98" y1="626.41" x2="461.44" y2="732.61"/>
      <line class="cls-3" x1="683.06" y1="638.32" x2="568.82" y2="720.97"/>
      <line class="cls-3" x1="725.75" y1="652" x2="589.59" y2="772.91"/>
      <line class="cls-3" x1="770.76" y1="660.72" x2="644.98" y2="807.76"/>
      <line class="cls-3" x1="815.76" y1="669.43" x2="731.52" y2="801.23"/>
      <line class="cls-3" x1="861.92" y1="674.88" x2="822.68" y2="770.18"/>
      <line class="cls-3" x1="910.38" y1="679.51" x2="882.69" y2="814.84"/>
      <line class="cls-3" x1="959.84" y1="679.51" x2="959.84" y2="837.71"/>
    </g>
    <g>
      <line class="cls-3" x1="1460.07" y1="446.19" x2="1789.65" y2="446.19"/>
      <line class="cls-3" x1="1460.07" y1="469.53" x2="1744.92" y2="481.75"/>
      <line class="cls-3" x1="1450.65" y1="492.86" x2="1648.4" y2="511.75"/>
      <line class="cls-3" x1="1438.26" y1="514.66" x2="1715.57" y2="554.81"/>
      <line class="cls-3" x1="1417.27" y1="534.73" x2="1724.41" y2="596.52"/>
      <line class="cls-3" x1="1397.38" y1="554.81" x2="1654.81" y2="622.07"/>
      <line class="cls-3" x1="1373.07" y1="576.71" x2="1544.32" y2="630.94"/>
      <line class="cls-3" x1="1344.35" y1="596.52" x2="1570.84" y2="682.56"/>
      <line class="cls-3" x1="1311.2" y1="612.69" x2="1544.32" y2="722.19"/>
      <line class="cls-3" x1="1275.16" y1="627.63" x2="1458.7" y2="733.82"/>
      <line class="cls-3" x1="1237.08" y1="639.54" x2="1351.32" y2="722.19"/>
      <line class="cls-3" x1="1194.39" y1="653.22" x2="1330.55" y2="774.13"/>
      <line class="cls-3" x1="1149.38" y1="661.94" x2="1275.16" y2="808.98"/>
      <line class="cls-3" x1="1104.38" y1="670.65" x2="1188.62" y2="802.44"/>
      <line class="cls-3" x1="1058.22" y1="676.1" x2="1097.46" y2="771.4"/>
      <line class="cls-3" x1="1009.76" y1="680.73" x2="1037.45" y2="816.06"/>
    </g>
    <g>
      <g>
        <line class="cls-3" x1="459.84" y1="423.36" x2="174.99" y2="411.14"/>
        <line class="cls-3" x1="469.26" y1="400.02" x2="271.51" y2="381.14"/>
        <line class="cls-3" x1="481.65" y1="378.23" x2="204.34" y2="338.08"/>
        <line class="cls-3" x1="502.64" y1="358.15" x2="195.5" y2="296.36"/>
        <line class="cls-3" x1="522.53" y1="338.08" x2="265.1" y2="270.81"/>
        <line class="cls-3" x1="546.84" y1="316.18" x2="375.59" y2="261.95"/>
        <line class="cls-3" x1="575.56" y1="296.36" x2="349.07" y2="210.32"/>
        <line class="cls-3" x1="608.71" y1="280.2" x2="375.59" y2="170.69"/>
        <line class="cls-3" x1="644.75" y1="265.26" x2="461.21" y2="159.06"/>
        <line class="cls-3" x1="682.83" y1="253.34" x2="568.59" y2="170.69"/>
        <line class="cls-3" x1="725.52" y1="239.66" x2="589.36" y2="118.76"/>
        <line class="cls-3" x1="770.53" y1="230.95" x2="644.75" y2="83.9"/>
        <line class="cls-3" x1="815.53" y1="222.23" x2="731.29" y2="90.44"/>
        <line class="cls-3" x1="861.69" y1="216.79" x2="822.45" y2="121.48"/>
        <line class="cls-3" x1="910.15" y1="212.16" x2="882.46" y2="76.82"/>
      </g>
      <g>
        <line class="cls-3" x1="1459.84" y1="422.14" x2="1744.69" y2="409.92"/>
        <line class="cls-3" x1="1450.42" y1="398.81" x2="1648.17" y2="379.92"/>
        <line class="cls-3" x1="1438.03" y1="377.01" x2="1715.34" y2="336.86"/>
        <line class="cls-3" x1="1417.04" y1="356.93" x2="1724.18" y2="295.14"/>
        <line class="cls-3" x1="1397.15" y1="336.86" x2="1654.58" y2="269.59"/>
        <line class="cls-3" x1="1372.84" y1="314.96" x2="1544.09" y2="260.73"/>
        <line class="cls-3" x1="1344.12" y1="295.14" x2="1570.61" y2="209.1"/>
        <line class="cls-3" x1="1310.97" y1="278.98" x2="1544.09" y2="169.47"/>
        <line class="cls-3" x1="1274.93" y1="264.04" x2="1458.47" y2="157.84"/>
        <line class="cls-3" x1="1236.85" y1="252.12" x2="1351.09" y2="169.47"/>
        <line class="cls-3" x1="1194.16" y1="238.44" x2="1330.32" y2="117.54"/>
        <line class="cls-3" x1="1149.15" y1="229.73" x2="1274.93" y2="82.69"/>
        <line class="cls-3" x1="1104.15" y1="221.02" x2="1188.39" y2="89.22"/>
        <line class="cls-3" x1="1057.99" y1="215.57" x2="1097.23" y2="120.26"/>
        <line class="cls-3" x1="1009.53" y1="210.94" x2="1037.22" y2="75.61"/>
      </g>
    </g>
  </g>
  <g>
    <path class="cls-4" d="m995.57,111.89l26.06-25.61-24.1-26.47-.1-.1c-1.28-1.28-2.63-2.47-4.05-3.59l13.13-12.18-4.08-4.4-14.1,13.08c-7.54-4.57-16.4-7.17-25.93-7.54l.42-21.25-6-.12-.43,21.42c-9.49.57-18.59,3.38-26.27,8.01l-13.26-14.29-4.4,4.08,12.65,13.63c-1.33,1.04-2.6,2.14-3.81,3.3l-23.69,26.43,25.19,25.16.2.18c1.4,1.17,2.82,2.26,4.26,3.29l-14.56,13.5,4.08,4.4,15.69-14.55c7.83,4.53,16.04,6.96,24.53,7.25l-.39,19.54,6,.12.39-19.81c8.14-.69,16.24-3.35,24.22-7.94l14.13,15.23,4.4-4.08-13.36-14.4c1.06-.73,2.13-1.48,3.19-2.28Zm-13.32-33.62c0,12.66-10.3,22.96-22.96,22.96s-22.96-10.3-22.96-22.96,10.3-22.96,22.96-22.96,22.96,10.3,22.96,22.96Zm-76.37,7.79l19.67-21.95c5.43-5.2,12.13-8.83,19.31-10.93-8.67,5.01-14.53,14.38-14.53,25.09,0,15.97,12.99,28.96,28.96,28.96s28.96-12.99,28.96-28.96c0-11.07-6.25-20.71-15.4-25.58,7.65,1.96,14.74,5.7,20.3,11.22l20.17,22.15-21.51,21.16c-21.92,16.45-44.94,16.41-64.85-.12l-21.07-21.05Z"/>
    <path class="cls-4" d="m957.45,95.26c9.85,0,17.84-7.99,17.84-17.84,0-9.06-6.76-16.54-15.51-17.68,2.69,3.12,4.32,7.18,4.32,11.63,0,9.85-7.99,17.84-17.84,17.84-.79,0-1.57-.06-2.33-.16,3.27,3.8,8.12,6.21,13.53,6.21Z"/>
  </g>
  <circle class="cls-4" cx="1799.32" cy="446.19" r="10.8"/>
  <circle class="cls-4" cx="120.68" cy="444.98" r="10.8"/>
  <g>
    <path class="cls-4" d="m1376.82,387.55c2.84,6.05,6.2,12.75,8.48,15.9,3.42,4.72,12.38,13.31,18.07,18.6-5.1,4.84-12.72,12.3-15.7,16.42-2.65,3.67-6.93,11.58-10.42,18.33-3.11-6.56-6.95-14.13-9.68-17.77-3.02-4.02-11.5-11.37-17.14-16.08,5.52-5.55,14.14-14.45,17.45-19.12,2.34-3.3,5.91-10.16,8.94-16.28m.16-14.23s-9.69,20.98-13.99,27.04c-4.57,6.45-21.5,23.02-21.5,23.02,0,0,17.2,13.81,21.29,19.25,4.79,6.38,14.21,28.05,14.21,28.05,0,0,10.91-22.28,15.56-28.7,4.16-5.75,19.67-19.98,19.67-19.98,0,0-17.4-15.65-22.05-22.07-4.16-5.75-13.18-26.61-13.18-26.61h0Z"/>
    <path class="cls-4" d="m1416.93,494.34l-2.59-5.96c-1.49-3.44-4.36-9.54-5.68-11.31-1.04-1.38-5.61-5.3-8.52-7.64l-2.64-2.12,2.42-2.37c1.95-1.91,7.32-7.3,8.79-9.37,1.37-1.93,4.55-8.6,5.67-11.01l2.81-6.09,2.66,6.16c1.43,3.31,4.13,9.15,5.28,10.74,1.46,2.02,6.95,7.11,8.94,8.9l2.46,2.21-2.43,2.23c-2.46,2.26-6.8,6.44-7.96,8.04-1.49,2.06-5.09,9.18-6.34,11.75l-2.86,5.83Zm-10.45-27.46c2.42,2.03,5.72,4.92,6.98,6.59,1.07,1.42,2.52,4.21,3.77,6.81,1.4-2.69,3.01-5.61,4.04-7.04,1.22-1.68,4.21-4.64,6.38-6.71-2.43-2.27-5.98-5.7-7.38-7.64-.88-1.21-2.12-3.64-3.25-5.99-1.2,2.39-2.52,4.88-3.42,6.15-1.36,1.91-4.76,5.45-7.12,7.83Z"/>
  </g>
  <path class="cls-4" d="m517.65,408.85c3.49,6.75,7.77,14.67,10.42,18.33,2.98,4.12,10.6,11.58,15.7,16.42-5.69,5.29-14.65,13.88-18.07,18.6-2.28,3.15-5.63,9.85-8.48,15.9-3.03-6.13-6.6-12.98-8.94-16.28-3.31-4.67-11.94-13.57-17.45-19.12,5.64-4.71,14.13-12.06,17.14-16.08,2.73-3.64,6.57-11.22,9.68-17.77m-.28-13.88s-9.42,21.67-14.21,28.05c-4.08,5.44-21.29,19.25-21.29,19.25,0,0,16.93,16.57,21.5,23.02,4.3,6.06,13.99,27.04,13.99,27.04,0,0,9.02-20.86,13.18-26.61,4.65-6.42,22.05-22.07,22.05-22.07,0,0-15.51-14.23-19.67-19.98-4.65-6.42-15.56-28.7-15.56-28.7h0Z"/>
  <path class="cls-4" d="m557.58,427.17l-2.81-6.09c-1.11-2.41-4.3-9.08-5.67-11.01-1.46-2.07-6.84-7.46-8.79-9.37l-2.42-2.37,2.64-2.12c2.91-2.34,7.48-6.25,8.52-7.64,1.33-1.77,4.19-7.88,5.68-11.31l2.59-5.96,2.86,5.83c1.26,2.57,4.85,9.69,6.34,11.75,1.16,1.6,5.49,5.78,7.96,8.04l2.43,2.23-2.46,2.21c-1.99,1.79-7.48,6.88-8.94,8.9-1.15,1.58-3.85,7.43-5.28,10.74l-2.66,6.16Zm-10.7-28.4c2.36,2.38,5.76,5.92,7.12,7.83.9,1.27,2.22,3.76,3.42,6.15,1.12-2.35,2.37-4.77,3.25-5.99,1.4-1.94,4.95-5.37,7.38-7.64-2.16-2.06-5.16-5.02-6.38-6.71-1.04-1.43-2.64-4.36-4.04-7.04-1.25,2.6-2.7,5.39-3.77,6.81-1.25,1.67-4.55,4.56-6.98,6.59Z"/>
</svg>