<?xml version="1.0" encoding="UTF-8" standalone="no"?>
<!-- Created with Inkscape (http://www.inkscape.org/) -->

<svg
   width="100"
   height="100"
   viewBox="0 0 26.458333 26.458333"
   version="1.1"
   id="svg1"
   >

  <defs
     id="defs1" />
  <g
     id="layer1">
    <g
       id="g3"
       transform="matrix(0.21667691,0,0,0.22693367,-119.1249,-30.538706)">&#10;	<path
   d="m 551,195.9 c 0.4,0.4 1,0.6 1.5,0.6 0.8,0 1.6,-0.5 2,-1.2 l 20.3,-32.4 20.5,32.1 c 0.5,0.7 1.2,1.2 2,1.2 0.8,0 1.5,-0.5 2,-1.2 l 22.3,-35.3 25.1,36.9 c 0.5,0.7 1.2,1.1 2,1.1 0.1,0 0.1,0 0.2,0 0.8,-0.1 1.6,-0.6 2,-1.5 l 20.9,-41.9 c 0.7,-1.4 0.3,-3.2 -0.9,-4.1 -0.4,-0.3 -0.8,-0.4 -1.3,-0.4 -0.9,0 -1.7,0.6 -2.2,1.5 l -19,38.2 -24.8,-36.5 c -0.5,-0.7 -1.2,-1.1 -2,-1.1 -0.8,0 -1.5,0.5 -2,1.2 l -22.2,35.2 -20.5,-32.2 c -0.5,-0.7 -1.2,-1.2 -1.9,-1.2 0,0 0,0 0,0 -0.1,0 -0.1,0 -0.2,0 -0.7,0 -1.4,0.4 -1.9,1.2 l -22.3,35.6 c -0.4,0.6 -0.6,1.4 -0.5,2.2 0,0.9 0.4,1.6 0.9,2 z"
   id="path2" />
&#10;	<path
   d="m 670.9,187.6 c -0.4,-0.3 -0.8,-0.4 -1.3,-0.4 -0.9,0 -1.7,0.6 -2.2,1.5 l -19,38.2 -24.8,-36.5 c -0.5,-0.7 -1.2,-1.1 -2,-1.1 -0.8,0 -1.5,0.5 -2,1.2 l -22.2,35.2 -20.5,-32.2 c -0.5,-0.7 -1.2,-1.2 -1.9,-1.2 0,0 0,0 0,0 -0.1,0 -0.1,0 -0.2,0 -0.7,0 -1.4,0.4 -1.9,1.2 l -22.3,35.6 c -0.4,0.6 -0.6,1.4 -0.5,2.2 0.1,0.8 0.5,1.5 1,1.9 0.4,0.4 1,0.6 1.5,0.6 0.8,0 1.6,-0.5 2,-1.2 l 20.3,-32.4 20.5,32.1 c 0.5,0.7 1.2,1.2 2,1.2 0.8,0 1.5,-0.5 2,-1.2 l 22.3,-35.3 25.1,36.9 c 0.5,0.7 1.2,1.1 2,1.1 0.1,0 0.1,0 0.2,0 0.8,-0.1 1.6,-0.6 2,-1.5 l 20.9,-41.9 c 0.6,-1.3 0.2,-3.1 -1,-4 z"
   id="path3" />
&#10;</g>
  </g>
</svg>
