<?xml version="1.0" encoding="UTF-8" standalone="no"?>
<!-- Created with Inkscape (http://www.inkscape.org/) -->

<svg
   width="100"
   height="100"
   viewBox="0 0 26.458333 26.458333"
   version="1.1"
   id="svg1"
   inkscape:version="1.3 (0e150ed6c4, 2023-07-21)"
   sodipodi:docname="Aries.svg"
   xmlns:inkscape="http://www.inkscape.org/namespaces/inkscape"
   xmlns:sodipodi="http://sodipodi.sourceforge.net/DTD/sodipodi-0.dtd"
   xmlns="http://www.w3.org/2000/svg"
   xmlns:svg="http://www.w3.org/2000/svg">
  <sodipodi:namedview
     id="namedview1"
     pagecolor="#ffffff"
     bordercolor="#000000"
     borderopacity="0.25"
     inkscape:showpageshadow="2"
     inkscape:pageopacity="0.0"
     inkscape:pagecheckerboard="0"
     inkscape:deskcolor="#d1d1d1"
     inkscape:document-units="mm"
     inkscape:zoom="3.9660278"
     inkscape:cx="152.79772"
     inkscape:cy="69.464969"
     inkscape:window-width="1920"
     inkscape:window-height="1001"
     inkscape:window-x="-9"
     inkscape:window-y="-9"
     inkscape:window-maximized="1"
     inkscape:current-layer="layer1" />
  <defs
     id="defs1" />
  <g
     inkscape:label="Layer 1"
     inkscape:groupmode="layer"
     id="layer1">
    <path
       d="M 26.337959,4.7076198 C 26.056944,2.9451182 25.009521,1.616846 23.34897,0.85053885 22.42928,0.41629974 21.535128,0.21194794 20.640987,0.21194794 c -2.401411,0 -4.675089,1.68587576 -6.054624,4.52121706 C 13.947687,6.0358824 13.564478,8.258178 13.33456,10.454928 13.104633,8.2837231 12.721433,6.0614275 12.082758,4.733165 10.703222,1.8978237 8.4550902,0.21194794 6.02813,0.21194794 c -0.8685962,0 -1.7882866,0.2043518 -2.7079771,0.63859091 C 1.6596005,1.616846 0.61217483,2.9706537 0.33115896,4.7076198 -0.05204539,6.9299154 0.89319167,9.3565532 2.0172582,10.429383 c 0.1532817,0.153262 0.3576567,0.229888 0.5620327,0.229888 0.2299226,0 0.4342986,-0.102171 0.5875803,-0.255433 C 3.4734347,10.097315 3.4734347,9.5864405 3.1413226,9.2799176 2.4515548,8.6157912 1.6340529,6.7255636 1.9406163,4.9630523 2.1449913,3.7369609 2.8347592,2.8429374 4.0354664,2.2809821 4.7252342,1.948914 5.4150021,1.7956526 6.0536756,1.7956526 c 2.6313353,0 4.1897014,2.784251 4.5984494,3.627184 1.328448,2.7331703 1.456181,11.0092874 1.456181,11.1114584 l 0.434297,8.991335 c 0,0.05107 0,0.07665 0.02559,0.10218 0,0.05107 0.02559,0.127717 0.05108,0.178797 0,0.02558 0.02549,0.05107 0.05108,0.07665 0.02559,0.05107 0.07667,0.102171 0.127733,0.153262 0.02559,0.02558 0.05108,0.05107 0.102194,0.07665 0.02559,0.02558 0.07667,0.07665 0.153282,0.102181 0.05108,0.02558 0.102185,0.02558 0.153282,0.05107 0.02559,0 0.07667,0.02558 0.127733,0.02558 0,0 0.05108,0 0.05108,0 0,0 0.02559,0 0.02559,0 0.05108,0 0.102194,-0.02558 0.153282,-0.02558 0.02559,0 0.07667,-0.02558 0.127742,-0.02558 0.07667,-0.02558 0.127734,-0.07665 0.178821,-0.10218 0.02559,-0.02558 0.05108,-0.05107 0.07667,-0.05107 0.05108,-0.05107 0.102185,-0.127726 0.127733,-0.178807 0.02559,-0.02558 0.02559,-0.05107 0.05108,-0.07666 0.02559,-0.07665 0.05108,-0.127716 0.05108,-0.178806 0,-0.02549 0.02559,-0.07666 0.02559,-0.102171 l 0.383209,-9.042425 c 0.05108,-2.886422 0.408748,-8.8891633 1.456172,-11.0859137 0.408758,-0.842933 1.967114,-3.627184 4.598452,-3.627184 0.638676,0 1.328448,0.1532614 2.018211,0.4853295 1.175157,0.5364102 1.890478,1.4559788 2.094847,2.6820702 0.281025,1.7369661 -0.536481,3.6527389 -1.200705,4.3168653 -0.306563,0.3065229 -0.332112,0.8173977 -0.02559,1.1239207 0.153282,0.153261 0.357661,0.255432 0.587588,0.255432 0.204369,0 0.408748,-0.07665 0.56203,-0.229887 1.098521,-1.0728301 2.04376,-3.4994679 1.66055,-5.7217635 z"
       id="path5"
       style="stroke-width:0.255452" />
  </g>
</svg>
