<?xml version="1.0" encoding="UTF-8" standalone="no"?>
<!-- Created with Inkscape (http://www.inkscape.org/) -->

<svg
   width="100"
   height="100"
   viewBox="0 0 26.458333 26.458333"
   version="1.1"
   id="svg1">
  <defs
     id="defs1" />
  <g

     id="layer1">
    <g
       id="g8"
       transform="matrix(0.25431146,0,0,0.2638478,-107.75896,-4.2403063)">&#10;	<path
   d="m 443.1,75.9 c 10.9,0 19.7,-8.8 19.7,-19.7 0,-10.9 -8.8,-19.7 -19.7,-19.7 -0.2,0 -0.4,0 -0.6,0 8.4,-6.6 19.3,-9.9 32.4,-9.9 h 0.3 c 25.1,0.1 43.4,17.2 43.6,17.4 0.6,0.6 1.4,0.9 2.2,0.9 0.9,0 1.7,-0.3 2.3,-1 1.2,-1.3 1.1,-3.2 -0.1,-4.4 -0.8,-0.8 -20.1,-19 -47.9,-19.1 -30.4,0 -43.8,16.3 -49.1,26 -0.2,0.3 -0.3,0.6 -0.3,1 -1.5,2.9 -2.2,5.9 -2.2,8.9 -0.3,10.8 8.6,19.6 19.4,19.6 z m 0,-33.1 c 7.4,0 13.4,6 13.4,13.4 0,7.4 -6,13.4 -13.4,13.4 -7.4,0 -13.4,-6 -13.4,-13.4 0,-7.4 6,-13.4 13.4,-13.4 z"
   id="path7" />
&#10;	<path
   d="m 508.2,55.6 c -10.9,0 -19.7,8.8 -19.7,19.7 0,10.9 8.8,19.7 19.7,19.7 0.2,0 0.4,0 0.6,0 -8.4,6.6 -19.3,9.9 -32.4,9.9 h -0.3 C 451,104.8 432.7,87.7 432.5,87.5 c -0.6,-0.6 -1.4,-0.9 -2.2,-0.9 -0.9,0 -1.7,0.3 -2.3,1 -1.2,1.3 -1.1,3.2 0.1,4.4 0.8,0.8 20.1,19 47.9,19.1 0,0 0,0 0,0 30.4,0 43.8,-16.3 49.1,-26 0.2,-0.3 0.3,-0.6 0.3,-1 1.5,-2.9 2.2,-5.9 2.2,-8.9 0.3,-10.8 -8.6,-19.6 -19.4,-19.6 z m 0,33.1 c -7.4,0 -13.4,-6 -13.4,-13.4 0,-7.4 6,-13.4 13.4,-13.4 7.4,0 13.4,6 13.4,13.4 0,7.4 -6,13.4 -13.4,13.4 z"
   id="path8" />
&#10;</g>
  </g>
</svg>
