<?xml version="1.0" encoding="UTF-8" standalone="no"?>
<!-- Created with Inkscape (http://www.inkscape.org/) -->

<svg
   width="100"
   height="100"
   viewBox="0 0 26.458333 26.458333"
   version="1.1"
   id="svg1"
   inkscape:version="1.3 (0e150ed6c4, 2023-07-21)"
   sodipodi:docname="drawing.svg"
   xmlns:inkscape="http://www.inkscape.org/namespaces/inkscape"
   xmlns:sodipodi="http://sodipodi.sourceforge.net/DTD/sodipodi-0.dtd"
   xmlns="http://www.w3.org/2000/svg"
   xmlns:svg="http://www.w3.org/2000/svg">
  <sodipodi:namedview
     id="namedview1"
     pagecolor="#ffffff"
     bordercolor="#000000"
     borderopacity="0.25"
     inkscape:showpageshadow="2"
     inkscape:pageopacity="0.0"
     inkscape:pagecheckerboard="0"
     inkscape:deskcolor="#d1d1d1"
     inkscape:document-units="mm"
     inkscape:zoom="5.6088103"
     inkscape:cx="38.510841"
     inkscape:cy="65.521916"
     inkscape:window-width="1920"
     inkscape:window-height="1001"
     inkscape:window-x="-9"
     inkscape:window-y="-9"
     inkscape:window-maximized="1"
     inkscape:current-layer="layer1" />
  <defs
     id="defs1" />
  <g
     inkscape:label="Layer 1"
     inkscape:groupmode="layer"
     id="layer1">
    <path
       d="m 24.086385,16.891114 c -0.924901,-0.881345 -2.324752,-1.419946 -3.64961,-1.419946 -1.249868,0 -2.399745,0.465155 -3.349644,1.370982 -0.524944,0.514118 -0.974896,1.101682 -1.399851,1.909582 -0.224976,-1.297537 -0.27497,-2.472664 -0.27497,-2.986782 0,-2.790927 -0.025,-6.9038723 -0.149984,-10.6495905 C 15.162336,2.202023 13.537509,1.0268958 12.58761,0.58622307 11.962677,0.29244124 11.237754,0.14555033 10.512831,0.14555033 c -1.0248906,0 -1.9747898,0.29378183 -2.6997129,0.8079 C 7.0881959,1.4920503 6.5382543,2.3489139 6.138297,3.4750777 5.8383289,2.3489139 5.3883768,1.541014 4.813438,1.0024139 4.0135233,0.26795936 3.0636244,0.19451391 2.438691,0.19451391 c -0.1999787,0 -0.3999574,0 -0.6499309,0.0244815 C 1.3638054,0.24347691 1.03884,0.63518627 1.0638374,1.0513772 c 0.024997,0.3917091 0.3749601,0.7099727 0.7749174,0.7099727 0.024997,0 0.049995,0 0.049995,0 0.1999787,-0.024481 0.3749602,-0.024481 0.5499415,-0.024481 0.5999361,0 0.9998935,0.1224091 1.2998615,0.3917091 0.8499095,0.7834182 1.2998616,2.8888546 1.3248589,6.2673456 0.049995,7.0507634 0.099989,12.7795084 0.099989,12.7795084 0,0.416191 0.3499626,0.758936 0.7749174,0.758936 0.4249548,0 0.7749175,-0.318263 0.7749175,-0.758936 C 6.738233,20.049269 7.0382009,10.134132 7.0881959,7.0739049 7.1131949,5.3356958 7.563145,3.009923 8.7130223,2.1530593 9.1379773,1.8347956 9.8129054,1.6389411 10.462837,1.6389411 c 0.499946,0 0.974896,0.097927 1.374853,0.2937819 0.774917,0.3672273 1.699819,1.1996091 1.774811,3.2071182 0.124986,3.7212364 0.149984,7.8096998 0.149984,10.6006268 0,1.126164 0.09999,3.305046 0.799915,5.239109 -0.499947,1.175128 -0.949899,2.301292 -1.649825,2.937819 -1.049888,1.003755 -1.349856,1.003755 -2.24976,1.003755 -0.424955,0 -0.7749175,0.342745 -0.7749175,0.758936 0,0.416191 0.3499625,0.758937 0.7749175,0.758937 1.149878,0 1.899798,-0.07344 3.324646,-1.419946 0.624933,-0.587564 1.074886,-1.395464 1.474843,-2.203364 0.424955,0.636527 0.949899,1.150646 1.549835,1.517873 1.12488,0.709973 2.24976,1.052718 3.349644,1.052718 0.349962,0 0.674928,-0.02448 0.999893,-0.09793 1.224869,-0.2693 2.299755,-1.028237 3.024677,-2.129918 1.32486,-1.885101 1.12488,-4.920846 -0.299968,-6.267346 z m -3.674608,0.122409 c 1.199872,0 2.174768,0.612046 2.574726,0.979273 0.899904,0.832382 0.974896,3.060227 0.149984,4.357764 -0.499947,0.758936 -1.22487,1.273054 -2.049782,1.468909 -0.224976,0.04897 -0.449952,0.07345 -0.674928,0.07345 -0.799915,0 -1.624827,-0.269301 -2.499734,-0.8079 -0.649931,-0.416191 -1.199872,-1.101682 -1.624827,-2.056473 0.47495,-1.126163 1.024891,-2.276809 1.849803,-3.060228 0.699925,-0.636526 1.449845,-0.954791 2.274758,-0.954791 z"
       id="path1"
       style="stroke-width:0.247382" />
  </g>
</svg>
