<?xml version="1.0" encoding="UTF-8" standalone="no"?>
<!-- Created with Inkscape (http://www.inkscape.org/) -->

<svg
   width="100"
   height="100"
   viewBox="0 0 26.458333 26.458333"
   version="1.1"
   id="svg1">
  <defs
     id="defs1" />
  <g
     id="layer1">
    <path
       d="m 23.753877,25.32394 c -0.09679,-0.346045 -0.387145,-0.593219 -0.725897,-0.593219 -0.07259,0 -0.120982,0 -0.193572,0.02472 -0.07259,0.02472 -0.822684,0.19774 -1.596974,0.19774 -0.483932,0 -0.895274,-0.07415 -1.185633,-0.19774 -2.056709,-0.889829 -3.048769,-2.496465 -3.097161,-4.918776 -0.0242,-2.84251 1.137238,-4.69632 2.080905,-6.204085 l 0.266162,-0.420199 c 0.774291,-1.260591 1.669564,-3.089684 1.524385,-5.9569102 -0.169376,-3.5098805 -2.153496,-7.31637061 -6.073341,-7.31637061 -1.717957,0 -3.363324,0.71680662 -4.52476,1.95268001 C 8.9939652,3.201805 8.3648539,5.0308977 8.4374437,7.1318825 8.5100287,9.1339974 9.163341,10.592328 9.865042,12.100094 c 0.387145,0.865111 0.798487,1.730222 1.088846,2.743639 -0.943667,-0.865112 -2.1534957,-1.359461 -3.4359137,-1.359461 -2.8551966,0 -5.1538708,2.372877 -5.1538708,5.264821 0,2.891944 2.3228714,5.264821 5.1538708,5.264821 2.4922467,0 4.6215457,-1.804375 5.0570847,-4.30084 0.387146,-1.532483 0.387146,-3.163836 -0.0242,-4.819906 -0.338751,-1.359462 -0.822682,-2.44703 -1.306614,-3.509881 C 10.615134,9.999109 10.034416,8.689083 9.9618262,7.0082951 9.8892319,5.3275073 10.373168,3.9186116 11.316835,2.9051954 c 0.871077,-0.9392638 2.129299,-1.4583306 3.411718,-1.4583306 2.927785,0 4.403777,3.0155311 4.548956,5.8333225 0.120983,2.4223121 -0.580718,3.9053607 -1.282419,5.0423637 l -0.266162,0.420197 c -0.992059,1.581918 -2.347068,3.757055 -2.322872,7.069196 0.0242,3.064966 1.379205,5.190668 4.016633,6.327672 0.483931,0.222458 1.088846,0.321327 1.790546,0.321327 1.040453,0 1.959923,-0.247174 1.959923,-0.247174 0.435538,-0.04944 0.677503,-0.469633 0.580717,-0.889829 z M 10.51835,20.874796 c -0.0242,0.02472 -0.0242,0.04944 -0.0242,0.07415 -0.6775052,0.988699 -1.7905474,1.581918 -2.9761794,1.581918 -2.0083162,0 -3.6536837,-1.680788 -3.6536837,-3.732338 0,-2.05155 1.6453675,-3.732338 3.6536837,-3.732338 2.0083153,0 3.6536834,1.680788 3.6536834,3.732338 0,0.222458 -0.0242,0.420197 -0.0484,0.568502 -0.241966,0.963981 -0.580718,1.507766 -0.604915,1.507766 z"
       id="path9"
       style="stroke-width:0.244556" />
  </g>
</svg>
