<?xml version="1.0" encoding="UTF-8" standalone="no"?>
<!-- Created with Inkscape (http://www.inkscape.org/) -->

<svg
   width="100"
   height="100"
   viewBox="0 0 26.458333 26.458333"
   version="1.1"
   id="svg1"
   inkscape:version="1.3 (0e150ed6c4, 2023-07-21)"
   sodipodi:docname="drawing.svg"
   xmlns:inkscape="http://www.inkscape.org/namespaces/inkscape"
   xmlns:sodipodi="http://sodipodi.sourceforge.net/DTD/sodipodi-0.dtd"
   xmlns="http://www.w3.org/2000/svg"
   xmlns:svg="http://www.w3.org/2000/svg">
  <sodipodi:namedview
     id="namedview1"
     pagecolor="#ffffff"
     bordercolor="#000000"
     borderopacity="0.25"
     inkscape:showpageshadow="2"
     inkscape:pageopacity="0.0"
     inkscape:pagecheckerboard="0"
     inkscape:deskcolor="#d1d1d1"
     inkscape:document-units="mm"
     inkscape:zoom="5.6088103"
     inkscape:cx="38.510841"
     inkscape:cy="65.521916"
     inkscape:window-width="1920"
     inkscape:window-height="1001"
     inkscape:window-x="-9"
     inkscape:window-y="-9"
     inkscape:window-maximized="1"
     inkscape:current-layer="layer1" />
  <defs
     id="defs1" />
  <g
     inkscape:label="Layer 1"
     inkscape:groupmode="layer"
     id="layer1">
    <path
       d="m 25.132835,0.72004857 c -0.09626,-0.31766814 -0.385028,-0.53759226 -0.721928,-0.53759226 -0.07219,0 -0.16845,0.0244357 -0.240643,0.0488723 C 24.098064,0.25576435 16.397503,2.91929 15.723703,12.522643 H 10.910848 C 10.237048,2.8948538 2.5605438,0.25576435 2.4642867,0.23132836 2.3920939,0.20689266 2.319901,0.18245603 2.223644,0.18245603 c -0.3368999,0 -0.6256713,0.21992412 -0.7219284,0.53759227 -0.1203213,0.3909763 0.096257,0.8308245 0.4812856,0.9774405 0.2887713,0.097744 6.7620617,2.3458573 7.387733,10.8495892 H 7.1327564 c -0.4090927,0 -0.7459926,0.342105 -0.7459926,0.757517 0,0.415413 0.3368999,0.757516 0.7459926,0.757516 h 2.2861064 c -0.096257,8.796965 -6.2326478,10.751847 -6.4973549,10.84959 -0.4090926,0.122181 -0.6256711,0.562029 -0.5053497,0.953005 0.096257,0.317669 0.3850284,0.537593 0.7219282,0.537593 0.072193,0 0.1443857,0 0.2165785,-0.02444 0.072193,-0.02444 7.4599261,-2.370293 7.5561831,-12.315751 h 4.716597 c 0.09626,9.945458 7.483991,12.291316 7.556184,12.315751 0.07219,0.02444 0.144385,0.02444 0.216578,0.02444 0.3369,0 0.625672,-0.219924 0.721928,-0.537593 0.120322,-0.415412 -0.09626,-0.830824 -0.505349,-0.953005 -0.264708,-0.07331 -6.401098,-2.052625 -6.497355,-10.825153 h 2.286106 c 0.409093,0 0.745993,-0.342105 0.745993,-0.757517 0,-0.415413 -0.3369,-0.757516 -0.745993,-0.757516 H 17.16756 C 17.79323,4.0922181 24.266521,1.8196689 24.555292,1.7219249 25.060642,1.5508728 25.277221,1.1110246 25.132835,0.72004857 Z"
       id="path4"
       style="stroke-width:0.242494" />
  </g>
</svg>
