<?xml version="1.0" encoding="UTF-8" standalone="no"?>
<!-- Created with Inkscape (http://www.inkscape.org/) -->

<svg
   width="100"
   height="100"
   viewBox="0 0 26.458333 26.458333"
   version="1.1"
   id="svg1"
   inkscape:version="1.3 (0e150ed6c4, 2023-07-21)"
   sodipodi:docname="drawing.svg"
   xmlns:inkscape="http://www.inkscape.org/namespaces/inkscape"
   xmlns:sodipodi="http://sodipodi.sourceforge.net/DTD/sodipodi-0.dtd"
   xmlns="http://www.w3.org/2000/svg"
   xmlns:svg="http://www.w3.org/2000/svg">
  <sodipodi:namedview
     id="namedview1"
     pagecolor="#ffffff"
     bordercolor="#000000"
     borderopacity="0.25"
     inkscape:showpageshadow="2"
     inkscape:pageopacity="0.0"
     inkscape:pagecheckerboard="0"
     inkscape:deskcolor="#d1d1d1"
     inkscape:document-units="mm"
     inkscape:zoom="7.9320556"
     inkscape:cx="39.334066"
     inkscape:cy="61.333408"
     inkscape:window-width="1920"
     inkscape:window-height="1001"
     inkscape:window-x="-9"
     inkscape:window-y="-9"
     inkscape:window-maximized="1"
     inkscape:current-layer="layer1" />
  <defs
     id="defs1" />
  <g
     inkscape:label="Layer 1"
     inkscape:groupmode="layer"
     id="layer1">
    <path
       d="M 26.089807,0.44826334 C 25.917165,0.27209365 25.606408,0.13115799 25.33018,0.13115799 c 0,0 -18.7144597,0.0704683 -18.7144597,0.0704683 -0.2762283,0 -0.5524564,0.10570178 -0.7596275,0.31710534 C 5.6489217,0.7301352 5.5453361,1.0120065 5.5453361,1.293878 c 0,0.5989768 0.4833992,1.0922517 1.0703842,1.0922517 L 22.809598,2.3156615 9.4815875,15.563619 6.4430776,12.463032 C 6.2359065,12.251629 5.9596784,12.145927 5.6834501,12.145927 c -0.2762282,0 -0.5524563,0.105709 -0.7596274,0.317105 -0.4143423,0.422808 -0.4143423,1.127487 0,1.550294 l 3.0039814,3.065352 -7.45816087,7.399125 c -0.20717114,0.211403 -0.31075671,0.493275 -0.34528519,0.775146 0,0.281871 0.10358557,0.563743 0.31075671,0.775147 0.20717114,0.211403 0.48339924,0.352339 0.75962745,0.352339 0.2762282,0 0.5524563,-0.105695 0.7596274,-0.317106 l 7.4581617,-7.399124 3.2456807,3.311988 c 0.207171,0.211404 0.4834,0.317106 0.759627,0.317106 0.276229,0 0.552457,-0.105695 0.759628,-0.317106 0.414343,-0.422807 0.414343,-1.127484 0,-1.550292 L 10.966314,17.149146 24.225266,4.0068899 V 20.214498 c 0,0.598976 0.4834,1.092251 1.070385,1.092251 0.586984,0 1.070384,-0.493275 1.070384,-1.092251 V 1.2234097 c 0.06906,-0.28187147 -0.06906,-0.5637428 -0.276228,-0.77514636 z"
       id="path14"
       style="stroke-width:0.348794" />
  </g>
</svg>
