<?xml version="1.0" encoding="UTF-8" standalone="no"?>
<!-- Created with Inkscape (http://www.inkscape.org/) -->

<svg
   width="100"
   height="100"
   viewBox="0 0 26.458333 26.458333"
   version="1.1"
   id="svg1">
  <defs
     id="defs1" />
  <g
     id="layer1">
    <path
       d="m 26.462707,21.172847 c 0,-0.429132 -0.345346,-0.782535 -0.764695,-0.782535 l -4.341494,-0.05049 c 0,0 -0.02467,0 -0.04934,0 -0.444017,0.05049 -0.740028,0.378646 -0.740028,0.782535 0,0.201944 0.07399,0.403888 0.222008,0.555347 0.148006,0.151458 0.345347,0.227187 0.542687,0.227187 l 2.664098,0.02525 c -0.814029,1.489339 -1.825399,2.221388 -3.034112,2.221388 -0.81403,0 -1.455387,-0.227187 -1.899403,-0.706805 -0.814031,-0.858265 -0.789363,-2.271875 -0.764696,-2.448577 l 0.09867,-17.7458638 c 0,-0.1009723 -0.02467,-0.2019445 -0.04934,-0.3029166 C 18.29772,2.8463943 17.286356,0.22111673 14.350913,0.17063059 h -0.123338 c -1.702064,0 -2.762769,0.90874991 -3.280788,1.53982621 C 10.404108,1.0288895 9.3680686,0.17062559 7.6166701,0.09489643 c -0.073998,0 -0.1480055,0 -0.2220083,0 -1.7020634,0 -2.7627692,0.83302079 -3.3547912,1.46409707 C 3.5218513,0.95316034 2.51048,0.17062559 0.83308388,0.09489643 c 0,0 -0.0246691,0 -0.0246691,0 -0.41934926,0 -0.76469482,0.32815977 -0.76469482,0.75729163 C 0.01905078,1.28132 0.36439821,1.6599658 0.78374747,1.6852088 2.3624726,1.760938 2.979162,2.6696879 3.1765029,3.0230907 L 3.3245084,20.743715 c 0,0.429132 0.3453465,0.782534 0.7893631,0.782534 0.4193482,0 0.7646948,-0.353402 0.7646948,-0.782534 L 4.9032354,3.0483337 c 0.2713438,-0.4543749 0.986704,-1.3631249 2.4667592,-1.3631249 0.074007,0 0.1233373,0 0.19734,0 1.6527288,0.075729 2.2940851,1.0854513 2.4914264,1.4640971 l 0.04934,17.5439221 c 0,0.429133 0.345346,0.782536 0.764695,0.782536 0.41935,0 0.764694,-0.353403 0.764694,-0.782536 L 11.834829,3.1745491 C 12.03217,2.7706601 12.722862,1.735695 14.227585,1.735695 h 0.07399 c 1.578726,0.025243 2.318754,1.2116666 2.516094,1.6660415 l -0.09866,17.5186795 c 0,0.227187 -0.07399,2.221389 1.184045,3.584514 0.740027,0.807777 1.751399,1.211667 3.034113,1.211667 1.134708,0 2.664099,-0.429133 3.97148,-2.372848 l 0.02467,2.297119 c 0,0.429131 0.345345,0.782534 0.764695,0.782534 v 0 c 0,0 0,0 0,0 0.419349,0 0.764695,-0.378646 0.764695,-0.807778 z"
       id="path11"
       style="stroke-width:0.249536" />
  </g>
</svg>
