<?xml version="1.0" encoding="UTF-8" standalone="no"?>
<!-- Created with Inkscape (http://www.inkscape.org/) -->

<svg
   width="100"
   height="100"
   viewBox="0 0 26.458333 26.458333"
   version="1.1"
   id="svg1"
   inkscape:version="1.3 (0e150ed6c4, 2023-07-21)"
   sodipodi:docname="Aries.svg"
   xmlns:inkscape="http://www.inkscape.org/namespaces/inkscape"
   xmlns:sodipodi="http://sodipodi.sourceforge.net/DTD/sodipodi-0.dtd"
   xmlns="http://www.w3.org/2000/svg"
   xmlns:svg="http://www.w3.org/2000/svg">
  <sodipodi:namedview
     id="namedview1"
     pagecolor="#ffffff"
     bordercolor="#000000"
     borderopacity="0.25"
     inkscape:showpageshadow="2"
     inkscape:pageopacity="0.0"
     inkscape:pagecheckerboard="0"
     inkscape:deskcolor="#d1d1d1"
     inkscape:document-units="mm"
     inkscape:zoom="3.9660278"
     inkscape:cx="152.79772"
     inkscape:cy="69.464969"
     inkscape:window-width="1920"
     inkscape:window-height="1001"
     inkscape:window-x="-9"
     inkscape:window-y="-9"
     inkscape:window-maximized="1"
     inkscape:current-layer="layer1" />
  <defs
     id="defs1" />
  <g
     inkscape:label="Layer 1"
     inkscape:groupmode="layer"
     id="layer1">
    <path
       d="M 16.413824,8.0918685 C 19.431648,7.3489053 21.091452,5.491497 21.79561,2.1729274 21.896204,1.7519148 22.047095,1.6280876 22.072245,1.6033222 22.449473,1.4547295 22.65066,1.033717 22.524918,0.63746995 22.424323,0.31551923 22.122541,0.09263024 21.770462,0.09263024 c -0.07544,0 -0.17604,0.02476513 -0.251486,0.0495312 C 21.418382,0.16692657 20.513035,0.51364299 20.236401,1.8509769 19.481945,5.3429044 17.470063,6.8040649 13.21996,6.9031273 8.9698583,6.828831 6.9579753,5.3676695 6.2035192,1.8509766 5.926886,0.48887729 5.0215387,0.16692657 4.920944,0.14216116 4.8454984,0.11739565 4.7700528,0.09263024 4.6694589,0.09263024 c -0.3269306,0 -0.6035648,0.19812357 -0.7293078,0.49530879 -0.1508912,0.37148161 0.0503,0.81725957 0.4275254,0.99061777 0,0 0.2011886,0.1238271 0.3017824,0.5696051 C 5.3736176,5.4419658 7.05857,7.3241392 10.051245,8.0671025 6.2538166,9.3796711 3.6132205,12.945895 3.6132205,16.982662 c 0,5.200743 4.3003994,9.460399 9.6067395,9.460399 5.281192,0 9.606741,-4.234891 9.606741,-9.460399 0,-4.012002 -2.615448,-7.5782258 -6.412877,-8.8907935 z M 13.245109,24.907604 c -4.4261419,0 -8.0223826,-3.541459 -8.0223826,-7.900177 0,-4.358717 3.5962407,-7.9001759 8.0223826,-7.9001759 4.426141,0 8.022382,3.5414589 8.022382,7.9001759 0,4.358718 -3.596241,7.900177 -8.022382,7.900177 z"
       id="path15"
       style="stroke-width:0.249562" />
  </g>
</svg>
