<?xml version="1.0" encoding="UTF-8" standalone="no"?>
<!-- Created with Inkscape (http://www.inkscape.org/) -->

<svg
   width="100"
   height="100"
   viewBox="0 0 26.458333 26.458333"
   version="1.1"
   id="svg1">
  <defs
     id="defs1" />
  <g
     id="layer1">
    <path
       d="M 25.201493,6.8513323 C 24.499532,6.116075 23.57194,5.7484462 22.493926,5.7484462 h -0.125349 c -1.428994,0.026259 -2.757707,0.8140351 -3.76051,1.5755516 l -0.02507,-4.0701747 c 0,-0.1050367 -0.02507,-0.2100736 -0.05014,-0.2888511 -0.05014,-0.1050368 -1.078014,-2.83599294 -4.06135,-2.88851067 h -0.125351 c -1.704764,0 -2.757706,0.8928121 -3.309248,1.60181027 C 10.485363,0.96927343 9.4324202,0.07646133 7.6524455,0.02394262 c -0.075205,0 -0.1504204,0 -0.2256305,0 -1.7298343,0 -2.8078466,0.86655323 -3.3844581,1.52303308 C 3.5158857,0.91675511 2.4880132,0.1027202 0.75817894,0.02394262 0.33198786,0.05020347 -0.01899294,0.36531178 -0.04406306,0.81171827 -0.06913281,1.2581245 0.2818478,1.6520124 0.70803878,1.6782716 2.3125227,1.7570492 2.9392743,2.7023801 3.1398347,3.0700088 L 3.2902551,21.503961 c 0,0.446407 0.3509809,0.814036 0.802242,0.814036 0.4261914,0 0.7771716,-0.367629 0.7771716,-0.814036 L 4.8947403,3.0962679 c 0.2507003,-0.420147 1.0028022,-1.4179963 2.5320756,-1.4179963 0.050143,0 0.1253506,0 0.1754911,0 1.6796938,0.078778 2.3315157,1.1291452 2.532076,1.5230331 l 0.05014,18.2501393 c 0,0.446405 0.350981,0.814034 0.777171,0.814034 0.426192,0 0.777173,-0.367629 0.777173,-0.814034 L 11.93943,3.2275639 C 12.190131,2.7286392 12.867023,1.73079 14.396296,1.73079 h 0.02507 c 1.629554,0.026259 2.381656,1.3392188 2.582216,1.7331067 l 0.100281,18.3026573 c 0,0.210073 0,0.446405 0.02507,0.708998 -1.052942,0.656479 -1.855184,1.076626 -1.855184,1.076626 -0.376051,0.210074 -0.551542,0.708998 -0.350981,1.102886 0.125351,0.288852 0.401121,0.446407 0.701962,0.446407 0.12535,0 0.2507,-0.02626 0.350981,-0.07877 0.12535,-0.07878 0.777171,-0.393888 1.629553,-0.919072 0.676892,1.391738 1.955465,2.205772 3.610089,2.31081 0.02507,0 0.05014,0 0.05014,0 0.426192,0 0.752102,-0.34137 0.777172,-0.761517 0.02507,-0.210074 -0.05014,-0.420147 -0.20056,-0.603962 -0.15042,-0.157555 -0.325911,-0.262591 -0.551542,-0.28885 -1.153222,-0.07878 -1.930394,-0.577703 -2.356585,-1.523034 2.130955,-1.391737 3.660229,-2.678438 4.53768,-3.860101 2.983338,-3.938879 2.983338,-7.641425 2.983338,-8.875608 0.05014,-1.4705138 -0.426191,-2.7834734 -1.253503,-3.6500267 z m -1.103082,1.1816636 c 0.526471,0.5514431 0.827312,1.4442556 0.827312,2.4421051 0,1.076627 0,4.359025 -2.632357,7.851498 -0.701962,0.919071 -1.930395,1.995699 -3.610088,3.124845 L 18.608072,9.4772515 c 0.401121,-0.3938879 2.105885,-2.0219578 3.760509,-2.0744762 0.752102,0.026259 1.328713,0.2100736 1.729835,0.6302206 z"
       id="path10"
       style="stroke-width:0.256577" />
  </g>
</svg>
