<?xml version="1.0" encoding="UTF-8" standalone="no"?>
<!-- Created with Inkscape (http://www.inkscape.org/) -->

<svg
   width="100"
   height="100"
   viewBox="0 0 26.458333 26.458333"
   version="1.1"
   id="svg1">
  <defs
     id="defs1" />
  <g
     id="layer1">
    <g
       id="g13"
       transform="matrix(0.25997816,0,0,0.26017696,-6.9063031,-36.969036)">&#10;	<path
   d="m 125.2,223.8 -95.1,0.3 c -0.8,0 -1.6,0.3 -2.2,0.9 -0.6,0.6 -0.9,1.4 -0.9,2.2 0,1.7 1.4,3.1 3.1,3.1 v 0 c 0,0 95.1,-0.3 95.1,-0.3 0.8,0 1.6,-0.3 2.2,-0.9 0.6,-0.6 0.9,-1.4 0.9,-2.2 0.1,-1.7 -1.3,-3.1 -3.1,-3.1 z"
   id="path12" />
&#10;	<path
   d="m 30.2,208 c 0,0 0,0 0,0 l 36.5,-0.1 c 0.8,0 1.6,-0.3 2.2,-0.9 0.6,-0.6 0.9,-1.4 0.9,-2.2 0,-1.6 -1.2,-2.9 -2.9,-3.1 -6.9,-3.9 -11.2,-11.1 -11.2,-19 0,-12 9.8,-21.8 21.8,-21.8 12,0 21.8,9.8 21.8,21.8 0,7.8 -4.3,15.1 -11.2,19 -1.4,0.4 -2.4,1.6 -2.4,3 0,1.7 1.4,3.2 3.1,3.2 l 36.3,-0.1 c 1.7,0 3.1,-1.4 3.1,-3.2 0,-1.7 -1.4,-3.1 -3.1,-3.1 l -23.7,0.1 c -0.1,0 -0.3,-0.1 -0.4,-0.1 0,0 -2.9,0 -2.9,0 4.7,-5.2 7.4,-11.9 7.4,-18.8 0,-15.5 -12.6,-28.1 -28.1,-28.1 -15.5,0 -28.1,12.6 -28.1,28.1 0,7 2.7,13.8 7.5,19 L 30,201.8 c -0.8,0 -1.6,0.3 -2.2,0.9 -0.6,0.6 -0.9,1.4 -0.9,2.2 0.1,1.7 1.5,3.1 3.3,3.1 z"
   id="path13" />
&#10;</g>
  </g>
</svg>
